<?xml version="1.0" encoding="utf-8"?>
<!-- Generator: Adobe Illustrator 19.0.0, SVG Export Plug-In . SVG Version: 6.00 Build 0)  -->
<svg version="1.1" id="Layer_1" xmlns="http://www.w3.org/2000/svg" xmlns:xlink="http://www.w3.org/1999/xlink" x="0px" y="0px"
	 viewBox="-270 148.3 300 300" style="enable-background:new -270 148.3 300 300;" xml:space="preserve">
<style type="text/css">
	.st0{fill:none;}
	.st1{fill:#1F8199;}
</style>
<rect id="XMLID_2_" x="-1815" y="31.3" class="st0" width="28" height="52"/>
<g>
	<path class="st1" d="M-102.8,425.5c-5.7,0-11.3-2.2-15.6-6.5l-113.1-113.1c-7.3-7.3-11.3-17.4-11.1-27.7l1.2-50.5
		c0.2-9.8,4.2-19,11.1-26l6.8-6.8c6.9-6.9,16.2-10.9,26-11.1l50.5-1.2c10.2-0.3,20.4,3.8,27.7,11.1L-6.2,306.8
		c8.6,8.6,8.6,22.7,0,31.3L-87.1,419C-91.4,423.3-97.1,425.5-102.8,425.5z M-146.1,199.7c-0.2,0-0.3,0-0.5,0l-50.5,1.2
		c-5.4,0.1-10.4,2.3-14.2,6.1l-6.9,6.8c-3.8,3.8-6,8.9-6.1,14.2l-1.2,50.5c-0.1,5.7,2.1,11.2,6.1,15.2l113.1,113.1
		c1.9,1.9,5.1,1.9,7,0l80.9-80.9c1.9-1.9,1.9-5.1,0-7l-113.1-113.1C-135.3,201.9-140.6,199.7-146.1,199.7z"/>
	<path class="st1" d="M-179.4,271.1c-6.7,0-13.1-2.6-17.8-7.4c-4.8-4.7-7.4-11.1-7.4-17.8s2.6-13.1,7.4-17.8
		c9.8-9.8,25.8-9.8,35.6,0c9.8,9.8,9.8,25.8,0,35.6l0,0l0,0c0,0,0,0,0,0C-166.3,268.4-172.6,271.1-179.4,271.1z M-179.4,237.8
		c-2.1,0-4.1,0.8-5.7,2.4c-1.5,1.5-2.4,3.5-2.4,5.7c0,2.2,0.8,4.2,2.4,5.7c3.1,3.1,8.3,3.1,11.4,0c0,0,0,0,0,0
		c3.1-3.1,3.1-8.3,0-11.4C-175.2,238.6-177.3,237.8-179.4,237.8z"/>
	<path class="st1" d="M-138.6,354.4c-2.2,0-4.4-0.8-6.1-2.5c-3.3-3.3-3.3-8.8,0-12.1l59.2-59.2c3.3-3.3,8.8-3.3,12.1,0
		c3.3,3.3,3.3,8.8,0,12.1l-59.2,59.2C-134.3,353.5-136.5,354.4-138.6,354.4z"/>
	<path class="st1" d="M-118.3,374.7c-2.2,0-4.4-0.8-6.1-2.5c-3.3-3.3-3.3-8.8,0-12.1l59.2-59.2c3.3-3.3,8.8-3.3,12.1,0
		c3.3,3.3,3.3,8.8,0,12.1l-59.2,59.2C-113.9,373.8-116.1,374.7-118.3,374.7z"/>
	<path class="st1" d="M-54.9,276.8c-4.2,0-7.9-3.1-8.5-7.4c-0.6-4.7,2.6-9,7.3-9.7c10.5-1.5,19.9-3.7,27.8-6.5
		c15.1-5.5,19.1-11.3,19.1-13.6c0-2.3-4-8.1-19.1-13.6c-31.3-11.4-82.2-11.4-113.4,0c-12.9,4.7-18.3,9.9-19,13
		c-0.3,1.4,0.5,3.1,2.5,5.1c3.3,3.3,3.4,8.8,0,12.1c-3.3,3.3-8.8,3.4-12.1,0c-6.2-6.2-8.8-13.6-7.2-20.9c1.6-7.2,8.1-17.5,29.9-25.4
		c35.1-12.7,90-12.7,125.1,0C2.7,218.9,8,231,8,239.5c0,8.5-5.3,20.6-30.4,29.7c-9.1,3.3-19.6,5.8-31.3,7.4
		C-54.1,276.7-54.5,276.8-54.9,276.8z"/>
</g>
</svg>
