<?xml version="1.0" encoding="utf-8"?>
<!-- Generator: Adobe Illustrator 19.0.0, SVG Export Plug-In . SVG Version: 6.00 Build 0)  -->
<svg version="1.1" id="Layer_1" xmlns="http://www.w3.org/2000/svg" xmlns:xlink="http://www.w3.org/1999/xlink" x="0px" y="0px"
	 viewBox="0 0 300 300" style="enable-background:new 0 0 300 300;" xml:space="preserve">
<style type="text/css">
	.st0{fill:#1F8199;}
</style>
<g id="XMLID_123_">
	<path id="XMLID_55_" class="st0" d="M75.4,228.1c-17.1,0-31-13.9-31-31V29.4c0-4.7,3.8-8.6,8.6-8.6h44.9c4.7,0,8.6,3.8,8.6,8.6
		v167.7C106.4,214.2,92.5,228.1,75.4,228.1z M61.5,37.9v159.1c0,7.7,6.2,13.9,13.9,13.9c7.7,0,13.9-6.2,13.9-13.9V37.9H61.5z"/>
	<path id="XMLID_54_" class="st0" d="M103.2,37.9H47.5c-4.7,0-8.6-3.8-8.6-8.6s3.8-8.6,8.6-8.6h55.7c4.7,0,8.6,3.8,8.6,8.6
		S107.9,37.9,103.2,37.9z"/>
	<path id="XMLID_53_" class="st0" d="M91.2,161.1H59.5c-4.7,0-8.6-3.8-8.6-8.6s3.8-8.6,8.6-8.6h31.8c4.7,0,8.6,3.8,8.6,8.6
		S96,161.1,91.2,161.1z"/>
	<path id="XMLID_50_" class="st0" d="M150,228.1c-17.1,0-31-13.9-31-31V29.4c0-4.7,3.8-8.6,8.6-8.6h44.9c4.7,0,8.6,3.8,8.6,8.6
		v167.7C181,214.2,167.1,228.1,150,228.1z M136.1,37.9v159.1c0,7.7,6.2,13.9,13.9,13.9c7.7,0,13.9-6.2,13.9-13.9V37.9H136.1z"/>
	<path id="XMLID_49_" class="st0" d="M177.8,37.9h-55.7c-4.7,0-8.6-3.8-8.6-8.6s3.8-8.6,8.6-8.6h55.7c4.7,0,8.6,3.8,8.6,8.6
		S182.6,37.9,177.8,37.9z"/>
	<path id="XMLID_48_" class="st0" d="M165.9,152.3h-31.8c-4.7,0-8.6-3.8-8.6-8.6c0-4.7,3.8-8.6,8.6-8.6h31.8c4.7,0,8.6,3.8,8.6,8.6
		C174.5,148.5,170.6,152.3,165.9,152.3z"/>
	<path id="XMLID_45_" class="st0" d="M224.6,228.1c-17.1,0-31-13.9-31-31V29.4c0-4.7,3.8-8.6,8.6-8.6h44.9c4.7,0,8.6,3.8,8.6,8.6
		v167.7C255.7,214.2,241.8,228.1,224.6,228.1z M210.8,37.9v159.1c0,7.7,6.2,13.9,13.9,13.9c7.7,0,13.9-6.2,13.9-13.9V37.9H210.8z"/>
	<path id="XMLID_44_" class="st0" d="M252.5,37.9h-55.7c-4.7,0-8.6-3.8-8.6-8.6s3.8-8.6,8.6-8.6h55.7c4.7,0,8.6,3.8,8.6,8.6
		S257.2,37.9,252.5,37.9z"/>
	<path id="XMLID_43_" class="st0" d="M240.5,158.9h-31.8c-4.7,0-8.6-3.8-8.6-8.6s3.8-8.6,8.6-8.6h31.8c4.7,0,8.6,3.8,8.6,8.6
		S245.3,158.9,240.5,158.9z"/>
	<path id="XMLID_40_" class="st0" d="M275.8,279.3H24.2c-4.7,0-8.6-3.8-8.6-8.6V106.1c0-4.7,3.8-8.6,8.6-8.6h251.6
		c4.7,0,8.6,3.8,8.6,8.6v164.7C284.4,275.5,280.6,279.3,275.8,279.3z M32.7,262.2h234.5V114.6H32.7V262.2z"/>
</g>
<rect id="XMLID_2_" x="-1545" y="-117" style="fill:none;" width="28" height="52"/>
</svg>
