<?xml version="1.0" encoding="utf-8"?>
<!-- Generator: Adobe Illustrator 19.0.0, SVG Export Plug-In . SVG Version: 6.00 Build 0)  -->
<svg version="1.1" id="Layer_1" xmlns="http://www.w3.org/2000/svg" xmlns:xlink="http://www.w3.org/1999/xlink" x="0px" y="0px"
	 viewBox="0 0 300 300" style="enable-background:new 0 0 300 300;" xml:space="preserve">
<style type="text/css">
	.st0{fill:#1F8199;}
</style>
<g id="XMLID_76_">
	<path id="XMLID_30_" class="st0" d="M273.5,291.4h-247c-4.7,0-8.6-3.8-8.6-8.6v-203c0-4.7,3.8-8.6,8.6-8.6h44.3
		c4.7,0,8.6,3.8,8.6,8.6s-3.8,8.6-8.6,8.6H35.1v185.8h229.9V88.5h-35.8c-4.7,0-8.6-3.8-8.6-8.6s3.8-8.6,8.6-8.6h44.3
		c4.7,0,8.6,3.8,8.6,8.6v203C282.1,287.6,278.2,291.4,273.5,291.4z"/>
	<path id="XMLID_27_" class="st0" d="M229.2,117.4H70.8c-4.7,0-8.6-3.8-8.6-8.6V17.3c0-4.7,3.8-8.6,8.6-8.6h158.4
		c4.7,0,8.6,3.8,8.6,8.6v91.5C237.7,113.5,233.9,117.4,229.2,117.4z M79.4,100.2h141.2V25.9H79.4V100.2z"/>
	<path id="XMLID_26_" class="st0" d="M70.8,161.4c-4.7,0-8.6-3.8-8.6-8.6v-8.7c0-4.7,3.8-8.6,8.6-8.6c4.7,0,8.6,3.8,8.6,8.6v8.7
		C79.4,157.5,75.5,161.4,70.8,161.4z"/>
	<path id="XMLID_25_" class="st0" d="M110.5,161.4c-4.7,0-8.6-3.8-8.6-8.6v-8.7c0-4.7,3.8-8.6,8.6-8.6c4.7,0,8.6,3.8,8.6,8.6v8.7
		C119,157.5,115.2,161.4,110.5,161.4z"/>
	<path id="XMLID_24_" class="st0" d="M150.1,161.4c-4.7,0-8.6-3.8-8.6-8.6v-8.7c0-4.7,3.8-8.6,8.6-8.6s8.6,3.8,8.6,8.6v8.7
		C158.7,157.5,154.8,161.4,150.1,161.4z"/>
	<path id="XMLID_23_" class="st0" d="M189.8,161.4c-4.7,0-8.6-3.8-8.6-8.6v-8.7c0-4.7,3.8-8.6,8.6-8.6c4.7,0,8.6,3.8,8.6,8.6v8.7
		C198.3,157.5,194.5,161.4,189.8,161.4z"/>
	<path id="XMLID_22_" class="st0" d="M189.8,205.2c-4.7,0-8.6-3.8-8.6-8.6V188c0-4.7,3.8-8.6,8.6-8.6c4.7,0,8.6,3.8,8.6,8.6v8.7
		C198.3,201.4,194.5,205.2,189.8,205.2z"/>
	<path id="XMLID_21_" class="st0" d="M70.8,249.1c-4.7,0-8.6-3.8-8.6-8.6v-8.8c0-4.7,3.8-8.6,8.6-8.6c4.7,0,8.6,3.8,8.6,8.6v8.8
		C79.4,245.3,75.5,249.1,70.8,249.1z"/>
	<path id="XMLID_20_" class="st0" d="M110.5,249.1c-4.7,0-8.6-3.8-8.6-8.6v-8.8c0-4.7,3.8-8.6,8.6-8.6c4.7,0,8.6,3.8,8.6,8.6v8.8
		C119,245.3,115.2,249.1,110.5,249.1z"/>
	<path id="XMLID_19_" class="st0" d="M150.1,249.1c-4.7,0-8.6-3.8-8.6-8.6v-8.8c0-4.7,3.8-8.6,8.6-8.6s8.6,3.8,8.6,8.6v8.8
		C158.7,245.3,154.8,249.1,150.1,249.1z"/>
	<path id="XMLID_18_" class="st0" d="M229.2,161.2c-4.7,0-8.6-3.8-8.6-8.6V144c0-4.7,3.8-8.6,8.6-8.6s8.6,3.8,8.6,8.6v8.7
		C237.8,157.4,233.9,161.2,229.2,161.2z"/>
	<path id="XMLID_17_" class="st0" d="M70.8,205.3c-4.7,0-8.6-3.8-8.6-8.6v-8.8c0-4.7,3.8-8.6,8.6-8.6c4.7,0,8.6,3.8,8.6,8.6v8.8
		C79.4,201.5,75.5,205.3,70.8,205.3z"/>
	<path id="XMLID_16_" class="st0" d="M229.2,205.3c-4.7,0-8.6-3.8-8.6-8.6v-8.8c0-4.7,3.8-8.6,8.6-8.6c4.7,0,8.6,3.8,8.6,8.6v8.8
		C237.7,201.5,233.9,205.3,229.2,205.3z"/>
	<path id="XMLID_15_" class="st0" d="M189.8,249c-4.7,0-8.6-3.8-8.6-8.6v-8.7c0-4.7,3.8-8.6,8.6-8.6c4.7,0,8.6,3.8,8.6,8.6v8.7
		C198.3,245.2,194.5,249,189.8,249z"/>
	<path id="XMLID_14_" class="st0" d="M229.2,249.1c-4.7,0-8.6-3.8-8.6-8.6v-8.8c0-4.7,3.8-8.6,8.6-8.6c4.7,0,8.6,3.8,8.6,8.6v8.8
		C237.7,245.3,233.9,249.1,229.2,249.1z"/>
	<path id="XMLID_13_" class="st0" d="M149.9,205.3c-4.7,0-8.6-3.8-8.6-8.6v-8.8c0-4.7,3.8-8.6,8.6-8.6c4.7,0,8.6,3.8,8.6,8.6v8.8
		C158.5,201.5,154.6,205.3,149.9,205.3z"/>
	<path id="XMLID_12_" class="st0" d="M110.2,205.3c-4.7,0-8.6-3.8-8.6-8.6v-8.8c0-4.7,3.8-8.6,8.6-8.6c4.7,0,8.6,3.8,8.6,8.6v8.8
		C118.8,201.5,115,205.3,110.2,205.3z"/>
	<g id="XMLID_77_">
		<path id="XMLID_11_" class="st0" d="M150.1,91.4c-4.7,0-8.6-3.8-8.6-8.6V43c0-4.7,3.8-8.6,8.6-8.6s8.6,3.8,8.6,8.6v39.8
			C158.7,87.5,154.8,91.4,150.1,91.4z"/>
		<path id="XMLID_10_" class="st0" d="M170,71.5h-39.8c-4.7,0-8.6-3.8-8.6-8.6s3.8-8.6,8.6-8.6H170c4.7,0,8.6,3.8,8.6,8.6
			S174.8,71.5,170,71.5z"/>
	</g>
</g>
</svg>
