<?xml version="1.0" encoding="utf-8"?>
<!-- Generator: Adobe Illustrator 19.0.0, SVG Export Plug-In . SVG Version: 6.00 Build 0)  -->
<svg version="1.1" id="Layer_1" xmlns="http://www.w3.org/2000/svg" xmlns:xlink="http://www.w3.org/1999/xlink" x="0px" y="0px"
	 viewBox="0 0 300 300" style="enable-background:new 0 0 300 300;" xml:space="preserve">
<style type="text/css">
	.st0{fill:#1F8199;}
</style>
<g id="XMLID_113_">
	<path id="XMLID_39_" class="st0" d="M241.2,280.6H58.8c-9.8,0-17.7-7.9-17.7-17.7V37.3c0-9.8,7.9-17.7,17.7-17.7h131.8
		c4.7,0,8.6,3.8,8.6,8.6s-3.8,8.6-8.6,8.6H58.8c-0.3,0-0.6,0.3-0.6,0.6v225.6c0,0.3,0.3,0.6,0.6,0.6h182.3c0.3,0,0.6-0.3,0.6-0.6
		V87.8c0-4.7,3.8-8.6,8.6-8.6s8.6,3.8,8.6,8.6v175.1C258.9,272.7,250.9,280.6,241.2,280.6z"/>
	<path id="XMLID_36_" class="st0" d="M250.3,96.4h-50.5c-9.8,0-17.7-8-17.7-17.7V28.1c0-3.5,2.1-6.6,5.3-7.9
		c3.2-1.3,6.9-0.6,9.3,1.9l59.7,59.7c2.5,2.4,3.2,6.1,1.9,9.3C256.9,94.3,253.8,96.4,250.3,96.4z M199.2,48.8v29.9
		c0,0.3,0.3,0.6,0.6,0.6h29.9L199.2,48.8z"/>
	<path id="XMLID_35_" class="st0" d="M211.3,180.3H86.2c-4.7,0-8.6-3.8-8.6-8.6c0-4.7,3.8-8.6,8.6-8.6h125.1c4.7,0,8.6,3.8,8.6,8.6
		C219.9,176.5,216.1,180.3,211.3,180.3z"/>
	<path id="XMLID_34_" class="st0" d="M211.3,208.9H86.2c-4.7,0-8.6-3.8-8.6-8.6c0-4.7,3.8-8.6,8.6-8.6h125.1c4.7,0,8.6,3.8,8.6,8.6
		C219.9,205.1,216.1,208.9,211.3,208.9z"/>
	<path id="XMLID_33_" class="st0" d="M211.3,237.5H86.2c-4.7,0-8.6-3.8-8.6-8.6c0-4.7,3.8-8.6,8.6-8.6h125.1c4.7,0,8.6,3.8,8.6,8.6
		C219.9,233.7,216.1,237.5,211.3,237.5z"/>
	<path id="XMLID_32_" class="st0" d="M113.1,123.2c-4.7,0-8.6-3.8-8.6-8.6V74.8c0-4.7,3.8-8.6,8.6-8.6c4.7,0,8.6,3.8,8.6,8.6v39.8
		C121.6,119.4,117.8,123.2,113.1,123.2z"/>
	<path id="XMLID_31_" class="st0" d="M133,103.3H93.1c-4.7,0-8.6-3.8-8.6-8.6c0-4.7,3.8-8.6,8.6-8.6H133c4.7,0,8.6,3.8,8.6,8.6
		C141.5,99.5,137.7,103.3,133,103.3z"/>
</g>
</svg>
