<?xml version="1.0" encoding="utf-8"?>
<!-- Generator: Adobe Illustrator 19.0.0, SVG Export Plug-In . SVG Version: 6.00 Build 0)  -->
<svg version="1.1" id="Layer_1" xmlns="http://www.w3.org/2000/svg" xmlns:xlink="http://www.w3.org/1999/xlink" x="0px" y="0px"
	 viewBox="0 0 300 300" style="enable-background:new 0 0 300 300;" xml:space="preserve">
<style type="text/css">
	.st0{fill:#1F8199;}
</style>
<g id="XMLID_154_">
	<path id="XMLID_67_" class="st0" d="M270.8,269.1H29.4c-9.5,0-17.2-7.7-17.2-17.2V87.8c0-9.5,7.7-17.3,17.2-17.3h241.4
		c9.5,0,17.2,7.7,17.2,17.3v164.1C288,261.4,280.3,269.1,270.8,269.1z M29.4,87.7c0,0-0.1,0.1-0.1,0.1v164.1l241.5,0.1l0.1-164.2
		L29.4,87.7z"/>
	<path id="XMLID_64_" class="st0" d="M159.9,228.3h-19.6c-9,0-16.2-7.3-16.2-16.2v-16.2h-16.2c-9,0-16.3-7.3-16.3-16.2v-19.6
		c0-9,7.3-16.3,16.3-16.3H124v-16.2c0-9,7.3-16.3,16.2-16.3h19.6c9,0,16.2,7.3,16.2,16.3v16.2h16.2c9,0,16.2,7.3,16.2,16.3v19.6
		c0,9-7.3,16.2-16.2,16.2h-16.2v16.2C176.1,221.1,168.8,228.3,159.9,228.3z M141.2,211.2H159v-23.9c0-4.7,3.8-8.6,8.6-8.6h23.9
		v-17.8h-23.9c-4.7,0-8.6-3.8-8.6-8.6v-23.9h-17.8v23.9c0,4.7-3.8,8.6-8.6,8.6h-23.9v17.8h23.9c4.7,0,8.6,3.8,8.6,8.6V211.2z"/>
	<path id="XMLID_63_" class="st0" d="M189.3,87.2c-4.7,0-8.6-3.8-8.6-8.6V53.8c0-3-2.6-5.6-5.7-5.6h-50c-3.1,0-5.7,2.5-5.7,5.6v24.9
		c0,4.7-3.8,8.6-8.6,8.6c-4.7,0-8.6-3.8-8.6-8.6V53.8c0-12.6,10.2-22.8,22.8-22.8h50c12.6,0,22.8,10.2,22.8,22.8v24.9
		C197.9,83.4,194,87.2,189.3,87.2z"/>
</g>
</svg>
