<?xml version="1.0" encoding="utf-8"?>
<!-- Generator: Adobe Illustrator 19.2.1, SVG Export Plug-In . SVG Version: 6.00 Build 0)  -->
<svg version="1.1" id="Layer_1" xmlns="http://www.w3.org/2000/svg" xmlns:xlink="http://www.w3.org/1999/xlink" x="0px" y="0px"
	 viewBox="0 0 247.886 73.62" style="enable-background:new 0 0 247.886 73.62;" xml:space="preserve">
<style type="text/css">
	.st0{fill:#3FBFAD;}
	.st1{fill:#00839B;}
</style>
<g>
	<path class="st0" d="M106.953,27.299h-6.313v-6.314c0-1.309-1.072-2.375-2.379-2.375h-6.396c-1.309,0-2.375,1.066-2.375,2.375
		v6.314h-6.316c-1.307,0-2.377,1.07-2.377,2.379v6.391c0,1.313,1.07,2.379,2.377,2.379h6.316v6.313c0,1.311,1.066,2.383,2.375,2.383
		h6.396c1.307,0,2.379-1.072,2.379-2.383v-6.313h6.313c1.307,0,2.379-1.066,2.379-2.379v-6.391
		C109.332,28.369,108.26,27.299,106.953,27.299z"/>
	<path class="st1" d="M95.064,13.137c5.277,0,10.24,2.057,13.969,5.787c7.699,7.701,7.699,20.229,0,27.934
		c-3.729,3.727-8.691,5.781-13.969,5.781c-5.275,0-10.236-2.055-13.971-5.785c-3.727-3.729-5.777-8.691-5.777-13.965
		c0-5.275,2.051-10.236,5.777-13.965C84.828,15.193,89.789,13.137,95.064,13.137 M95.064,0.027c-8.41,0-16.822,3.207-23.238,9.623
		c-12.834,12.836-12.834,33.645,0,46.479c6.416,6.416,14.824,9.623,23.238,9.623c8.412,0,16.826-3.207,23.238-9.623
		c12.836-12.834,12.836-33.643,0-46.479C111.887,3.234,103.477,0.027,95.064,0.027L95.064,0.027z"/>
	<path class="st1" d="M0,4c0-1.603,1.313-2.914,2.914-2.914h18.908c1.604,0,4.223,0.109,5.818,0.244c0,0,6.592,0.557,10.732,2.156
		c4.137,1.603,7.699,3.82,10.689,6.662c2.988,2.84,5.301,6.174,6.932,10.008c1.629,3.84,2.443,7.992,2.443,12.461l0,0
		c0,0.1-0.123,1.488-0.271,3.082c0,0-0.543,5.736-2.172,9.602c-1.631,3.867-3.943,7.221-6.932,10.058
		c-2.99,2.84-6.553,5.072-10.689,6.703c-4.141,1.633-8.688,2.447-13.635,2.447H2.914C1.313,64.51,0,63.197,0,61.594V4z
		 M21.822,51.914c1.604,0,4.223-0.107,5.818-0.24c0,0,2.531-0.211,4.887-1.117c2.355-0.906,4.363-2.205,6.027-3.894
		c1.66-1.693,2.955-3.686,3.893-5.981c0.936-2.293,1.406-4.863,1.406-7.701l0,0c0-0.1-0.117-1.488-0.254-3.086
		c0,0-0.217-2.443-1.152-4.799c-0.938-2.355-2.232-4.379-3.893-6.068c-1.664-1.691-3.672-3.006-6.027-3.941
		c-2.356-0.938-4.953-1.406-7.789-1.406H13.953v38.234H21.822z"/>
	<path class="st1" d="M163.947,65.596c-4.658,0-8.973-0.846-12.961-2.537c-3.986-1.688-7.43-4-10.33-6.93
		c-2.9-2.93-5.164-6.389-6.793-10.375c-1.629-3.988-2.447-8.244-2.447-12.773l0,0c0-0.1,0.123-1.488,0.269-3.084
		c0,0,0.549-5.871,2.178-9.828c1.629-3.955,3.893-7.43,6.793-10.418c2.9-2.994,6.375-5.346,10.422-7.068
		C155.123,0.861,159.594,0,164.49,0c2.959,0,5.662,0.24,8.109,0.725c2.445,0.482,4.664,1.148,6.656,1.994
		c1.994,0.844,3.838,1.873,5.527,3.08c1.691,1.209,2.57,2.012,2.57,2.012c1.18,1.086,1.285,2.963,0.234,4.174l-5.063,5.838
		c-1.049,1.209-2.934,1.383-4.188,0.383c0,0-2.719-2.168-5.287-3.438c-2.566-1.269-5.449-1.902-8.652-1.902
		c-2.656,0-5.121,0.514-7.389,1.541c-2.264,1.027-4.209,2.445-5.842,4.26c-1.631,1.81-2.896,3.91-3.805,6.293
		c-0.906,2.387-1.359,4.939-1.359,7.658l0,0c0,0.1,0.111,1.488,0.248,3.084c0,0,0.205,2.385,1.111,4.797
		c0.908,2.42,2.158,4.531,3.758,6.342c1.604,1.813,3.537,3.25,5.801,4.307c2.266,1.057,4.758,1.584,7.477,1.584
		c3.625,0,6.689-0.664,9.197-1.994c2.504-1.326,5.229-3.58,5.229-3.58c1.234-1.02,3.168-0.922,4.295,0.215l4.779,4.83
		c1.127,1.139,1.121,2.998-0.01,4.131c0,0-1.262,1.26-3.014,2.652c-1.752,1.389-3.668,2.58-5.752,3.576
		c-2.086,0.996-4.365,1.756-6.844,2.266C169.805,65.338,167.027,65.596,163.947,65.596z"/>
	<path class="st1" d="M191.836,16.877V2.783c0-0.803,0.652-1.457,1.455-1.457h5.197c0.803,0,1.459,0.654,1.459,1.457v13.82
		c0,2.531,1.662,4.549,4.945,4.549c3.246,0,4.908-2.018,4.908-4.549V2.783c0-0.803,0.656-1.457,1.455-1.457h5.197
		c0.803,0,1.459,0.654,1.459,1.457c0,0,0,7.486,0,14.055c0,6.57-4.115,11.357-13.02,11.357
		C195.99,28.195,191.836,23.408,191.836,16.877z"/>
	<path class="st1" d="M240.703,27.721c-0.803,0-1.633-0.633-1.846-1.402l-0.563-1.682h-9.498l-0.574,1.678
		c-0.209,0.774-1.031,1.406-1.832,1.406h-6.148c-0.803,0-1.23-0.615-0.953-1.367l8.725-23.66c0.279-0.752,1.16-1.367,1.963-1.367
		h7.137c0.803,0,1.686,0.615,1.961,1.367l8.727,23.66c0.279,0.752-0.152,1.367-0.951,1.367H240.703z M233.545,9.162
		c0.139,0-2.609,8.508-2.609,8.508h5.221C236.156,17.67,233.408,9.162,233.545,9.162z"/>
	<path class="st1" d="M73.119,49.039c-1.594-1.594-4.205-1.592-5.799,0L55.525,60.834c-1.594,1.596-1.594,4.203,0,5.793l5.793,5.795
		c1.596,1.598,4.207,1.598,5.801,0.002l11.795-11.797c1.59-1.59,1.594-4.197,0-5.795L73.119,49.039z"/>
</g>
</svg>
