<?xml version="1.0" encoding="utf-8"?>
<!-- Generator: Adobe Illustrator 19.0.0, SVG Export Plug-In . SVG Version: 6.00 Build 0)  -->
<svg version="1.1" id="Layer_1" xmlns="http://www.w3.org/2000/svg" xmlns:xlink="http://www.w3.org/1999/xlink" x="0px" y="0px"
	 viewBox="0 0 300 300" style="enable-background:new 0 0 300 300;" xml:space="preserve">
<style type="text/css">
	.st0{fill:#1F8199;}
</style>
<g id="XMLID_142_">
	<path id="XMLID_68_" class="st0" d="M154.6,270.1H41.1c-13.6,0-24.7-10.9-24.7-24.2V133c0-13.4,10.2-20.2,18.4-25.7
		c8.8-5.8,12.6-9,12.6-14.9v-3.3c-6.8-3.1-11.5-10-11.5-17.9V32.5c0-10.8,8.8-19.7,19.7-19.7h93.5c10.8,0,19.7,8.8,19.7,19.7v38.8
		c0,7.9-4.7,14.8-11.5,17.9v3.3c0,5.9,3.8,9,12.6,14.9c8.2,5.5,18.4,12.3,18.4,25.6v98.8c0,4.7-3.8,8.6-8.6,8.6s-8.6-3.8-8.6-8.6
		V133c0-3.8-3.5-6.5-10.8-11.4c-8.5-5.7-20.2-13.5-20.2-29.1V91H64.6v1.6c0,15.7-11.7,23.4-20.2,29.1c-7.5,5-10.8,7.6-10.8,11.4v6.4
		h87c4.7,0,8.6,3.8,8.6,8.6v77.6c0,4.7-3.8,8.6-8.6,8.6h-87v11.7c0,3.9,3.5,7.1,7.6,7.1h113.5c4.7,0,8.6,3.8,8.6,8.6
		C163.2,266.3,159.3,270.1,154.6,270.1z M33.5,217.1H112v-60.5H33.5V217.1z M55.6,30c-1.4,0-2.5,1.2-2.5,2.5v38.8
		c0,1.4,1.2,2.5,2.5,2.5h93.5c1.4,0,2.5-1.2,2.5-2.5V32.5c0-1.4-1.2-2.5-2.5-2.5H55.6z M258.1,233.2c-6.7,0-13.5-2.3-19.1-6.9
		l-29.8-24.9c-6.1-5.1-9.9-12.3-10.6-20.2c-0.7-7.9,1.7-15.7,6.8-21.8c5.1-6.1,12.3-9.9,20.2-10.6c8-0.7,15.7,1.7,21.8,6.8l0,0
		l29.8,24.9c6.1,5.1,9.9,12.3,10.6,20.2c0.7,7.9-1.7,15.7-6.8,21.8C275.2,229.6,266.7,233.2,258.1,233.2z M228.3,165.8
		c-3.6,0-7.2,1.6-9.8,4.6c-2.2,2.6-3.2,5.9-2.9,9.3c0.3,3.4,1.9,6.4,4.5,8.6l29.8,24.9c5.4,4.5,13.4,3.7,17.9-1.6
		c2.2-2.6,3.2-5.9,2.9-9.3c-0.3-3.4-1.9-6.4-4.5-8.6l-29.8-24.9C234.1,166.8,231.2,165.8,228.3,165.8z"/>
	<path id="XMLID_62_" class="st0" d="M229.6,215.9c-1.9,0-3.9-0.6-5.5-2c-3.6-3-4.1-8.4-1.1-12.1l27.2-32.7c3-3.6,8.4-4.1,12.1-1.1
		c3.6,3,4.1,8.4,1.1,12.1l-27.2,32.7C234.5,214.8,232,215.9,229.6,215.9z"/>
	<path id="XMLID_59_" class="st0" d="M215,287.3h-38.9c-16.4,0-29.8-13.4-29.8-29.8c0-16.4,13.4-29.8,29.8-29.8H215
		c16.4,0,29.8,13.4,29.8,29.8C244.8,273.9,231.4,287.3,215,287.3z M176.1,244.8c-7,0-12.7,5.7-12.7,12.7c0,7,5.7,12.7,12.7,12.7H215
		c7,0,12.7-5.7,12.7-12.7c0-7-5.7-12.7-12.7-12.7H176.1z"/>
	<path id="XMLID_58_" class="st0" d="M195.5,287.3c-4.7,0-8.6-3.8-8.6-8.6v-42.5c0-4.7,3.8-8.6,8.6-8.6c4.7,0,8.6,3.8,8.6,8.6v42.5
		C204.1,283.5,200.3,287.3,195.5,287.3z"/>
</g>
</svg>
