<?xml version="1.0" encoding="utf-8"?>
<!-- Generator: Adobe Illustrator 19.0.0, SVG Export Plug-In . SVG Version: 6.00 Build 0)  -->
<svg version="1.1" id="Layer_1" xmlns="http://www.w3.org/2000/svg" xmlns:xlink="http://www.w3.org/1999/xlink" x="0px" y="0px"
	 viewBox="0 0 300 300" style="enable-background:new 0 0 300 300;" xml:space="preserve">
<style type="text/css">
	.st0{fill:#1F8199;}
</style>
<g id="XMLID_104_">
	<path id="XMLID_9_" class="st0" d="M150,89.3c-4.7,0-8.6-3.8-8.6-8.6V40.8c0-4.7,3.8-8.6,8.6-8.6c4.7,0,8.6,3.8,8.6,8.6v39.8
		C158.6,85.4,154.7,89.3,150,89.3z"/>
	<path id="XMLID_8_" class="st0" d="M169.9,69.3h-39.8c-4.7,0-8.6-3.8-8.6-8.6s3.8-8.6,8.6-8.6h39.8c4.7,0,8.6,3.8,8.6,8.6
		S174.7,69.3,169.9,69.3z"/>
	<path id="XMLID_7_" class="st0" d="M205.7,79.7c-0.3,0-0.7,0-1-0.1c-4.7-0.5-8.1-4.8-7.5-9.5l3.5-30.8
		c-5.6-4.2-26.9-13.2-50.7-13.2c-23.7,0-45,9-50.7,13.2l3.5,30.8c0.5,4.7-2.8,8.9-7.5,9.5c-4.7,0.5-9-2.8-9.5-7.5L82,38.5
		c-0.3-2.3,0.1-5.9,3.4-9.6C93.9,19.5,122.4,9,150,9c27.6,0,56.1,10.5,64.6,20c3.3,3.7,3.7,7.3,3.4,9.6l-3.8,33.5
		C213.6,76.4,209.9,79.7,205.7,79.7z"/>
	<path id="XMLID_6_" class="st0" d="M277.1,291.1c-0.4,0-0.8,0-1.2-0.1c-4.7-0.7-7.9-5-7.3-9.7l4.3-29.9v-4.6
		c0-5.7-9.3-10.3-18-11.8c-9.7-1.7-38.3-7-55.8-13.5c-10.1,31.1-28.1,49.3-49.3,49.3c0,0,0,0-0.1,0c-21.2,0-39.1-18.3-49.1-49.3
		C83.3,228,54.7,233.4,45,235c-8.7,1.5-18,6.2-18,11.8v4.6l4.3,29.9c0.7,4.7-2.6,9-7.3,9.7c-4.7,0.7-9-2.6-9.7-7.3L10,253.3
		c-0.1-0.4-0.1-0.8-0.1-1.2v-5.2c0-17.1,17.3-26.1,32.2-28.7c23.3-4.1,50.6-10.4,59.1-15.5c1-0.6,2.1-1,3.3-1.1
		c4.3-0.6,9.1,2.1,10.2,6.3c6.9,27.8,20.7,45.8,35.2,45.9c0,0,0,0,0,0c14.5,0,28.4-18,35.5-45.9c1.1-4.2,5-6.9,9.4-6.4
		c1.2,0.1,3.1,0.6,4.1,1.2c8.6,5.1,35.8,11.5,59.1,15.5c14.8,2.6,32.2,11.7,32.2,28.7v5.2c0,0.4,0,0.8-0.1,1.2l-4.4,30.5
		C285,288.1,281.3,291.1,277.1,291.1z"/>
	<path id="XMLID_5_" class="st0" d="M233.3,291.1H195c-4.7,0-8.6-3.8-8.6-8.6c0-4.7,3.8-8.6,8.6-8.6h38.3c4.7,0,8.6,3.8,8.6,8.6
		C241.8,287.3,238,291.1,233.3,291.1z"/>
	<path id="XMLID_2_" class="st0" d="M150,212c-23.6,0-44.2-16.5-53.8-42.6c-4.6-1-9-4.3-12.3-9.5c-3.9-5.7-6.2-13.7-6.1-21.2
		c-0.1-10.4,4.3-18.1,11.7-20.8c0-1.1-0.1-2.3-0.1-3.6c0-13.3,2.6-21.8,8.2-26.5c5.3-5.4,15.1-8.8,31.9,4c1.5,1.2,2.9,2.3,4.1,3.3
		c5.5,4.5,7.4,6,16.7,6.1c9-0.1,10.9-1.7,16.4-6.1c1.2-1,2.6-2.1,4.1-3.3c16.8-12.8,26.6-9.4,31.9-4c5.6,4.7,8.2,13.2,8.2,26.5
		c0,1.2,0,2.4-0.1,3.6c7.3,2.7,11.8,10.5,11.7,21c0.1,7.3-2.2,15.3-6.2,21.1c-3.2,4.9-7.5,8.1-12.2,9.3
		C194.2,195.4,173.6,212,150,212z M102.4,152.4c3.8,0,7.1,2.5,8.2,6.2c6.5,22.4,21.6,36.3,39.4,36.3s32.9-13.9,39.4-36.3
		c1.2-4.1,5.3-6.7,9.5-6.1l1.2,0.2c0-0.1,0.8-0.7,1.7-2.2c2.1-3.1,3.4-7.6,3.3-11.6c0-3.4-0.7-4.9-0.9-5.2
		c-7.4-0.2-11.2-5.8-10.7-16.4c0-0.9,0.1-1.9,0.1-3c0-11.1-2.2-13.5-2.2-13.5c-0.4-0.3-0.7-0.6-1-1c0.1,0.2-2.4,0.3-9.3,5.6
		c-1.4,1.1-2.6,2-3.7,3c-7.4,6-12.7,9.8-27.2,10c-14.8-0.2-20-3.9-27.5-10c-1.1-0.9-2.3-1.9-3.7-3c-7.1-5.5-9.6-5.4-9.8-5.3
		c-0.3,0.4-0.2,0.5-0.6,0.8l0,0c0,0-2.1,2.4-2.1,13.4c0,1,0,2,0.1,3c0.5,10.6-3.3,16.2-11.1,16.7c0.2,0-0.6,1.6-0.5,4.7
		c0,4.2,1.2,8.7,3.2,11.7c1.1,1.6,1.9,2.2,2.1,2.2l0.9-0.1C101.5,152.4,102,152.4,102.4,152.4z"/>
</g>
</svg>
