<?xml version="1.0" encoding="utf-8"?>
<!-- Generator: Adobe Illustrator 19.0.0, SVG Export Plug-In . SVG Version: 6.00 Build 0)  -->
<svg version="1.1" id="Layer_1" xmlns="http://www.w3.org/2000/svg" xmlns:xlink="http://www.w3.org/1999/xlink" x="0px" y="0px"
	 viewBox="0 0 300 300" style="enable-background:new 0 0 300 300;" xml:space="preserve">
<style type="text/css">
	.st0{fill:#1F8199;}
</style>
<path id="XMLID_81_" class="st0" d="M211.3,268.3H93.1c-4.7,0-8.6-3.8-8.6-8.6c0-4.7,3.8-8.6,8.6-8.6h20.8v-26.4H24.2
	c-4.7,0-8.6-3.8-8.6-8.6V40.4c0-4.7,3.8-8.6,8.6-8.6h251.6c4.7,0,8.6,3.8,8.6,8.6v175.9c0,4.7-3.8,8.6-8.6,8.6h-85.3v26.4h20.8
	c4.7,0,8.6,3.8,8.6,8.6C219.9,264.5,216.1,268.3,211.3,268.3z M131,251.2h42.5v-26.4H131V251.2z M32.7,207.7h234.5V48.9H32.7V207.7z
	 M143.7,195.8c-3.8,0-7.2-2.5-8.2-6.2c-6.7-23-11.8-44.1-17-66.9l-14.8,59.9c-0.9,3.7-4.1,6.3-7.9,6.5c-3.8,0.3-7.2-2.2-8.5-5.8
	l-9.4-27.3H52.3c-4.7,0-8.6-3.8-8.6-8.6c0-4.7,3.8-8.6,8.6-8.6h31.6c3.7,0,6.9,2.3,8.1,5.8l1.9,5.6l16.5-66.7
	c0.9-3.8,4.4-6.5,8.3-6.5c0,0,0,0,0.1,0c4,0,7.4,2.8,8.3,6.7l3.7,16.4c4.4,19.2,8.4,36.8,12.8,54.5l2.6-9.5c1-3.7,4.4-6.3,8.3-6.3
	h10.5L176.5,71c0.7-4.1,4.3-7.1,8.4-7.1c0,0,0.1,0,0.1,0c4.2,0,7.8,3.2,8.4,7.3l9.8,67.7H240c4.7,0,8.6,3.8,8.6,8.6
	c0,4.7-3.8,8.6-8.6,8.6h-44.2c-4.3,0-7.9-3.1-8.5-7.3l-3-20.9l-3.5,21.1c-0.7,4.1-4.3,7.1-8.4,7.1h-11.2l-9.2,33.4
	C150.9,193.2,147.6,195.8,143.7,195.8C143.7,195.8,143.7,195.8,143.7,195.8z"/>
</svg>
